<svg width="14" height="14" fill="none" xmlns="http://www.w3.org/2000/svg"><path fill-rule="evenodd" clip-rule="evenodd" d="M6.908 3a5.155 5.155 0 01.327 0h-.327zM3.316 8c.359 1.884 1.76 3.04 3.76 3.04 1.954 0 3.3-1.213 3.49-3.016H9.35c-.17 1.233-1.003 1.973-2.274 1.973-1.327 0-2.274-.748-2.594-1.997H3.316zM7 0C3.13 0 0 3.13 0 7s3.13 7 7 7 7-3.13 7-7-3.13-7-7-7zm0 12.9c-3.225 0-5.862-2.675-5.862-5.9 0-3.225 2.637-5.9 5.862-5.9s5.88 2.675 5.88 5.9c0 3.225-2.655 5.9-5.88 5.9z" fill="#4D4D4D"/></svg>