<svg xmlns="http://www.w3.org/2000/svg" width="42" height="42" fill="none"><path d="M21 5.25C12.315 5.25 5.25 12.315 5.25 21c0 8.685 7.065 15.75 15.75 15.75 8.685 0 15.75-7.065 15.75-15.75 0-8.685-7.065-15.75-15.75-15.75zm0 2.625c7.265 0 13.125 5.86 13.125 13.125S28.265 34.125 21 34.125A13.105 13.105 0 017.875 21c0-7.265 5.86-13.125 13.125-13.125zm-5.906 7.875a1.969 1.969 0 100 3.938 1.969 1.969 0 000-3.938zm8.531 1.313v2.625h6.563v-2.625h-6.563zm3.897 5.29c0 2.21-.887 3.743-2.175 4.84-1.286 1.098-2.989 1.682-4.347 1.682-2.784 0-4.676-1.129-6.153-2.584l-1.845 1.888c1.83 1.797 4.48 3.321 7.998 3.321 2.04 0 4.281-.77 6.07-2.297 1.79-1.528 3.077-3.885 3.077-6.85h-2.625z" fill="#fff"/></svg>