<svg width="45" height="45" fill="none" xmlns="http://www.w3.org/2000/svg"><rect y=".433" width="44.516" height="44.516" rx="10.599" fill="#F0F0F0"/><g clip-path="url(#clip0_2054_7451)"><path d="M36.95 15.276a3.847 3.847 0 00-2.705-2.723c-2.393-.644-11.957-.644-11.957-.644s-9.564 0-11.957.644a3.846 3.846 0 00-2.705 2.723c-.64 2.403-.64 7.414-.64 7.414s0 5.012.64 7.415a3.846 3.846 0 002.705 2.723c2.393.643 11.957.643 11.957.643s9.564 0 11.957-.643a3.847 3.847 0 002.705-2.723c.64-2.403.64-7.415.64-7.415s0-5.011-.64-7.414z" fill="#FF0302"/><path d="M19.158 27.241V18.14l8 4.55-8 4.551z" fill="#FEFEFE"/></g><defs><clipPath id="clip0_2054_7451"><path fill="#fff" transform="translate(6.956 7.388)" d="M0 0h30.604v30.604H0z"/></clipPath></defs></svg>