<svg width="136" height="42" fill="none" xmlns="http://www.w3.org/2000/svg"><path d="M26.685 1.756A4.409 4.409 0 0130.195 0c1.962 0 3.552 1.621 3.552 3.622V37.26c0 2.614-2.078 4.733-4.642 4.733H3.72c-3.086 0-4.825-3.615-2.936-6.104L26.685 1.756z" fill="#DCC3B0"/><path d="M51.39 1.756A4.409 4.409 0 0154.902 0c1.962 0 3.551 1.621 3.551 3.622v34.585c0 2.091-1.662 3.786-3.713 3.786H26.533c-2.314 0-3.618-2.711-2.202-4.578l27.06-35.659z" fill="#DCC3B0"/><path fill-rule="evenodd" clip-rule="evenodd" d="M107.6 37.807l-.067.025c-8.825 3.242-17.493 4.587-24.446 4.055-6.774-.519-12.945-2.95-14.888-8.392-1.942-5.443 1.254-11.35 6.117-16.19 4.99-4.967 12.478-9.619 21.281-12.921l.117-.044.041-.015.089-.033C104.753.984 113.518-.392 120.536.145c6.774.52 12.945 2.95 14.887 8.392 1.943 5.443-1.253 11.351-6.116 16.19-5.037 5.013-12.618 9.706-21.528 13.014l-.088.032-.042.016-.049.018zm-24.18-.724c2.964.227 6.356.07 10.008-.498a17.698 17.698 0 01-6.958-7.308l-12.463 4.627c1.707 1.6 4.784 2.825 9.412 3.18zm-11.03-7.709c.3-2.345 1.885-5.301 5.207-8.607 2.128-2.118 4.826-4.22 7.981-6.18a18.192 18.192 0 00-.724 10.16L72.39 29.374zm18.549-1.756c3.03 5.257 9.296 7.742 15.002 5.675l.082-.03.048-.018c5.706-2.14 8.964-8.171 7.969-14.204l-23.101 8.577zm21.485-13.107l-23.102 8.577c-.992-6.014 2.243-12.027 7.916-14.184l.13-.049c5.72-2.102 12.017.383 15.056 5.656zm6.085 2.87a18.194 18.194 0 01-.756 10.245c3.281-2.011 6.08-4.178 8.273-6.36 3.322-3.307 4.908-6.262 5.206-8.608l-12.723 4.724zm11.107-9.252l-12.723 4.723a17.701 17.701 0 00-7.035-7.352c3.781-.61 7.29-.785 10.346-.551 4.628.354 7.705 1.579 9.412 3.18z" fill="#DCC3B0"/></svg>