<?xml version="1.0" encoding="utf-8"?><svg viewBox="0 0 36 38" xmlns="http://www.w3.org/2000/svg" xmlns:xlink="http://www.w3.org/1999/xlink"><style>:root>svg{display:none}:root>svg:target{display:block}</style><svg fill="none" viewBox="0 0 34 34" id="icon-close" xmlns="http://www.w3.org/2000/svg"><path d="M33 32.548L1 1M33 1.452L1 33" stroke="currentColor" stroke-linecap="round"/></svg><svg fill="none" viewBox="0 0 36 38" id="icon-tg" xmlns="http://www.w3.org/2000/svg"><path fill-rule="evenodd" clip-rule="evenodd" d="M4.176 17.18c7.548-3.254 12.573-5.415 15.096-6.464 7.182-2.975 8.691-3.489 9.662-3.51.215 0 .69.043 1.013.3.26.213.324.492.367.706.043.214.086.663.043 1.006-.388 4.066-2.07 13.933-2.933 18.47-.366 1.926-1.078 2.568-1.768 2.633-1.51.128-2.653-.985-4.098-1.927-2.286-1.476-3.558-2.397-5.78-3.852-2.566-1.67-.905-2.59.561-4.088.388-.385 7.01-6.378 7.139-6.913.021-.064.021-.321-.13-.45-.15-.128-.366-.085-.54-.042-.236.043-3.86 2.44-10.912 7.17-1.035.706-1.962 1.048-2.803 1.027-.928-.021-2.696-.514-4.033-.942-1.618-.513-2.912-.792-2.804-1.69.065-.471.712-.942 1.92-1.435z" fill="currentColor"/></svg></svg>